<?xml version="1.0" encoding="utf-8"?>
<!-- Generator: Adobe Illustrator 23.0.5, SVG Export Plug-In . SVG Version: 6.00 Build 0)  -->
<svg version="1.1" id="Layer_1" xmlns="http://www.w3.org/2000/svg" xmlns:xlink="http://www.w3.org/1999/xlink" x="0px" y="0px"
	 viewBox="0 0 128 128" style="enable-background:new 0 0 128 128;" xml:space="preserve">
<style type="text/css">
	.st0{clip-path:url(#SVGID_2_);fill:#AF1F24;}
	.st1{opacity:0.29;clip-path:url(#SVGID_2_);}
	.st2{clip-path:url(#SVGID_4_);fill:#AF1F24;}
	.st3{clip-path:url(#SVGID_2_);fill:#F8991D;}
</style>
<g>
	<defs>
		<rect id="SVGID_1_" x="-35.42" y="-7.87" width="201.55" height="141.72"/>
	</defs>
	<clipPath id="SVGID_2_">
		<use xlink:href="#SVGID_1_"  style="overflow:visible;"/>
	</clipPath>
	<path class="st0" d="M9.17,100.71v1.25v0.94v0.83H8.46c-0.47-0.01-0.86-0.02-1.16-0.02v-0.12v-0.89v-0.83v-1.14
		c0-0.21-0.07-0.38-0.21-0.52c-0.14-0.14-0.31-0.21-0.52-0.21H6.53H6.18c-0.21,0-0.38,0.07-0.52,0.21
		c-0.14,0.14-0.21,0.31-0.21,0.52v0.1v0.81v0.71v1.06c0,0.24,0.06,0.45,0.19,0.64c0.12,0.21,0.3,0.36,0.52,0.46l0.08,0.04
		c0.07,0.03,0.3,0.14,0.71,0.33c0.17,0.07,0.37,0.16,0.62,0.27c0.25,0.12,0.55,0.27,0.89,0.44c0.21,0.1,0.38,0.24,0.52,0.44
		c0.12,0.21,0.19,0.43,0.19,0.67v0.19v1.29v1.16v1.64c0,0.57-0.2,1.05-0.6,1.46c-0.4,0.4-0.89,0.6-1.46,0.6H7.05H6.92H5.64
		c-0.57,0-1.05-0.2-1.46-0.6c-0.4-0.4-0.6-0.89-0.6-1.46v-0.54v-1.23v-0.94v-0.81h0.71c0.46-0.01,0.85-0.02,1.16-0.02v0.12v0.91
		v0.81v1.14c0,0.21,0.07,0.38,0.21,0.52c0.14,0.14,0.31,0.21,0.52,0.21h0.04h0.35c0.21,0,0.38-0.07,0.52-0.21
		c0.14-0.14,0.21-0.31,0.21-0.52v-0.1v-0.79v-0.69c0-0.28-0.01-0.62-0.02-1.02c0-0.24-0.06-0.45-0.19-0.64
		c-0.12-0.19-0.29-0.35-0.5-0.46l-0.1-0.04c-0.07-0.03-0.3-0.14-0.69-0.33c-0.17-0.07-0.37-0.17-0.62-0.29
		c-0.25-0.11-0.55-0.25-0.89-0.42c-0.22-0.1-0.39-0.25-0.52-0.46c-0.12-0.19-0.19-0.41-0.19-0.64v-0.15v-0.04v-1.31v-1.18v-1.68
		c0-0.57,0.2-1.05,0.6-1.46c0.4-0.4,0.89-0.6,1.46-0.6h0.54h0.94c0.57,0,1.05,0.2,1.46,0.6c0.4,0.4,0.6,0.89,0.6,1.46V100.71z"/>
	<path class="st0" d="M16.09,106.68c0.82-3.83,1.43-6.69,1.85-8.61h1.87v14.95h-1.48h-0.37v-6.07c-0.53,2.7-0.92,4.73-1.19,6.07
		h-1.37c-0.53-2.69-0.91-4.71-1.16-6.05v6.05h-1.87V98.07h1.85L16.09,106.68z"/>
	<path class="st0" d="M27.9,98.42c0.04,0.21,0.1,0.5,0.17,0.87c0.11,0.68,0.27,1.59,0.48,2.72c0.19,1.12,0.4,2.32,0.62,3.6
		c0.24,1.32,0.46,2.63,0.69,3.95c0.24,1.3,0.44,2.45,0.6,3.45h-0.31h-0.39h-1.21l-0.15-0.69c-0.08-0.47-0.15-0.86-0.21-1.16h-0.44
		h-1.02h-0.77h-0.69l-0.12,0.69c-0.08,0.47-0.15,0.86-0.21,1.16h-0.73h-1.21l0.06-0.31c0.03-0.21,0.08-0.5,0.15-0.87
		c0.12-0.68,0.28-1.58,0.48-2.7c0.19-1.14,0.4-2.34,0.62-3.62c0.24-1.32,0.47-2.63,0.71-3.93c0.22-1.32,0.42-2.47,0.6-3.47h0.83
		h1.39L27.9,98.42z M27.67,108.13c-0.11-0.75-0.24-1.61-0.37-2.58l-0.29-1.95c-0.1-0.65-0.19-1.22-0.27-1.7l-0.17,1.12
		c-0.11,0.75-0.24,1.61-0.39,2.6c-0.1,0.64-0.19,1.28-0.29,1.93c-0.1,0.65-0.18,1.23-0.25,1.73h0.37h0.46h1.39L27.67,108.13z"/>
	<path class="st0" d="M38.73,100.36v0.71v0.64v0.91v1.87v2.66c0,0.54-0.18,1.02-0.54,1.43c-0.36,0.4-0.8,0.64-1.33,0.71l0.29,0.56
		c0.18,0.37,0.4,0.81,0.64,1.31c0.17,0.32,0.33,0.64,0.5,0.98c0.17,0.33,0.3,0.62,0.42,0.87h-0.69h-1.16l-0.29-0.58
		c-0.18-0.37-0.39-0.81-0.64-1.31c-0.17-0.32-0.33-0.64-0.5-0.98c-0.17-0.32-0.31-0.6-0.42-0.85v0.56
		c-0.01,0.37-0.02,0.81-0.02,1.31v0.98v0.87H34.7h-0.4h-1.16v-0.89v-2.06v-1.54v-1.37v-1.06v-2.41v-1.83v-1.6v-0.37v-0.44v-1.33
		h0.81h1.33h0.27h0.48h0.21h0.35c0.6,0,1.1,0.21,1.52,0.62c0.42,0.42,0.62,0.92,0.62,1.52V100.36z M36.63,100.21
		c-0.15-0.15-0.34-0.23-0.56-0.23h-0.4h-0.67v1.1v0.04v2.6v1.98v1.7h0.06h0.06h0.94c0.22,0,0.41-0.08,0.56-0.23
		c0.15-0.15,0.23-0.33,0.23-0.54v-0.25v-1.77v-1.58v-2.27C36.86,100.55,36.79,100.36,36.63,100.21"/>
	<polygon class="st0" points="41.93,99.98 41.93,98.07 49.48,98.07 49.48,99.98 46.63,99.98 46.63,113.02 45.16,113.02 
		44.78,113.02 44.78,99.98 	"/>
	<path class="st0" d="M105.28,100.36v0.71v0.64v0.91v1.87v2.66c0,0.54-0.18,1.02-0.54,1.43c-0.36,0.4-0.8,0.64-1.33,0.71h-0.69
		h-1.16v0.56c0,0.37-0.01,0.81-0.02,1.31v0.98v0.87h-0.29h-0.4h-1.16v-0.89v-2.06v-1.54v-1.37v-1.06v-2.41v-1.83v-1.6v-0.37v-0.44
		v-1.33h0.81h1.33h0.27h0.48h0.21h0.35c0.6,0,1.1,0.21,1.52,0.62c0.42,0.42,0.62,0.92,0.62,1.52V100.36z M103.18,100.21
		c-0.15-0.15-0.34-0.23-0.56-0.23h-0.4h-0.67v1.1v0.04v2.6v1.98v1.7h0.06h0.06h0.94c0.22,0,0.41-0.08,0.56-0.23
		c0.15-0.15,0.23-0.33,0.23-0.54v-0.25v-1.77v-1.58v-2.27C103.41,100.55,103.33,100.36,103.18,100.21"/>
	<path class="st0" d="M113.37,98.42c0.04,0.21,0.1,0.5,0.17,0.87c0.11,0.68,0.27,1.59,0.48,2.72c0.19,1.12,0.4,2.32,0.62,3.6
		c0.24,1.32,0.46,2.63,0.69,3.95c0.24,1.3,0.44,2.45,0.6,3.45h-0.31h-0.39h-1.21l-0.15-0.69c-0.08-0.47-0.15-0.86-0.21-1.16h-0.44
		h-1.02h-0.77h-0.69l-0.12,0.69c-0.08,0.47-0.15,0.86-0.21,1.16h-0.73h-1.21l0.06-0.31c0.03-0.21,0.08-0.5,0.15-0.87
		c0.12-0.68,0.28-1.58,0.48-2.7c0.19-1.14,0.4-2.34,0.62-3.62c0.24-1.32,0.47-2.63,0.71-3.93c0.22-1.32,0.42-2.47,0.6-3.47h0.83
		h1.39L113.37,98.42z M113.14,108.13c-0.11-0.75-0.24-1.61-0.37-2.58l-0.29-1.95c-0.1-0.65-0.19-1.22-0.27-1.7l-0.17,1.12
		c-0.11,0.75-0.24,1.61-0.39,2.6c-0.1,0.64-0.19,1.28-0.29,1.93c-0.1,0.65-0.18,1.23-0.25,1.73h0.37h0.46h1.39L113.14,108.13z"/>
	<path class="st0" d="M124.2,100.34v1.1v1v1.43v2.93v4.16c0,0.57-0.2,1.05-0.6,1.46c-0.4,0.4-0.89,0.6-1.46,0.6h-0.5h-0.04h-1.25
		h-0.94h-0.81V112v-1.83v-0.79v-1.85v-2.02v-3.93v-3.47h0.54h1.25h0.94h0.81c0.57,0,1.05,0.2,1.46,0.6s0.6,0.89,0.6,1.46V100.34z
		 M122.06,100.25c-0.18-0.18-0.4-0.27-0.64-0.27h-0.35h-0.58v0.77v1.37v0.58v1.39v1.52v2.93v2.6h0.04h0.06h0.83
		c0.25,0,0.46-0.09,0.64-0.27c0.18-0.18,0.27-0.39,0.27-0.64v-0.15v-0.96v-0.87v-1.23v-2.54v-3.58
		C122.33,100.65,122.24,100.43,122.06,100.25"/>
	<path class="st0" d="M60.83,106.68c0.82-3.83,1.43-6.69,1.85-8.61h1.87v14.95h-1.48H62.7v-6.07c-0.53,2.7-0.92,4.73-1.19,6.07
		h-1.37c-0.53-2.69-0.91-4.71-1.16-6.05v6.05h-1.87V98.07h1.85L60.83,106.68z"/>
	<polygon class="st0" points="69.63,99.98 69.63,104.62 73.35,104.62 73.35,106.51 69.63,106.51 69.63,111.15 73.35,111.15 
		73.35,113.02 68.92,113.02 67.75,113.02 67.75,98.07 73.35,98.07 73.35,99.98 	"/>
	<path class="st0" d="M80.27,105.57v-7.46h1.87v13.64v1.27h-1.87c-0.83-3.31-1.46-5.8-1.87-7.46v7.46h-1.85V98.11h1.85
		C79.23,101.42,79.85,103.91,80.27,105.57"/>
	<path class="st0" d="M89.04,110.23v-0.71v-2.27v-2.99v-3.28v-2.87h0.71h1.18v0.19v1.35v1.21v1.73v3.53v5.01
		c0,0.53-0.19,0.97-0.56,1.33c-0.37,0.37-0.82,0.56-1.33,0.56h-0.12h-0.1h-1.58c-0.53,0-0.97-0.19-1.33-0.56
		c-0.37-0.36-0.56-0.8-0.56-1.33v-0.27v-0.75v-1.39v-0.98v-3.16v-3.45v-3.01h0.71h1.18v0.19v1.27v1.14v1.66v3.35v4.78
		c0,0.18,0.06,0.33,0.19,0.46c0.14,0.12,0.3,0.19,0.48,0.19h0.06h0.42c0.18,0,0.34-0.06,0.48-0.19c0.12-0.12,0.19-0.28,0.19-0.46
		V110.23z"/>
	<path class="st0" d="M90.74,86.96h-53.7c-5.6,0-10.18-4.58-10.18-10.18v-53.7c0-5.6,4.58-10.18,10.18-10.18h53.7
		c5.6,0,10.18,4.58,10.18,10.18v53.7C100.92,82.38,96.34,86.96,90.74,86.96"/>
	<g class="st1">
		<g>
			<defs>
				<rect id="SVGID_3_" x="29.46" y="15.89" width="71.07" height="71.07"/>
			</defs>
			<clipPath id="SVGID_4_">
				<use xlink:href="#SVGID_3_"  style="overflow:visible;"/>
			</clipPath>
			<path class="st2" d="M29.46,83.97c1.85,1.85,4.39,2.99,7.19,2.99h53.7c5.6,0,10.18-4.58,10.18-10.18v-53.7
				c0-2.8-1.15-5.35-2.99-7.19L29.46,83.97z"/>
		</g>
	</g>
	<polygon class="st3" points="84.22,46.09 84.33,45.98 84.33,45.98 	"/>
	<path class="st3" d="M67.23,23.83c-0.35,0.29-0.46,0.73-0.26,0.97l4.1,4.89c0.2,0.24,0.12,0.66-0.2,0.92
		c-0.31,0.26-0.73,0.28-0.94,0.03l-4.1-4.89c-0.2-0.24-0.65-0.2-1,0.09c-0.35,0.29-0.46,0.73-0.26,0.97l4.1,4.89
		c0.2,0.24,0.12,0.66-0.2,0.92c-0.31,0.26-0.73,0.28-0.94,0.03l-4.1-4.89c-0.2-0.24-0.65-0.2-1,0.09c-0.35,0.29-0.46,0.73-0.26,0.97
		l4.43,5.28c1.45,1.72,2.6,1.31,3.68,0.49l11.4,13.58c0.56,0.67,1.52,0.79,2.13,0.28c0.61-0.51,0.65-1.48,0.09-2.15l-11.4-13.58
		c0.99-0.92,1.6-1.98,0.14-3.71l-4.43-5.27C68.02,23.5,67.57,23.54,67.23,23.83"/>
	<path class="st3" d="M45.99,53.82l5.85,5.89l1.23,1.24v0l3.37,3.39l2.52,2.54c2.22,2.24,4.43,4.47,5.77,5.81
		c0.19,0.19,0.27,0.43,0.24,0.69c-0.02,0.19-0.2,0.46-0.66,0.51c-1.88,0.19-5.15-1.2-10.04-6.13c-0.18-0.18-0.36-0.36-0.52-0.54
		c-0.32-0.35-0.64-0.73-0.97-1.15c-0.71-0.92-1.28-1.82-1.73-2.64c-0.09-0.2-0.17-0.46-0.23-0.76c-0.05-0.24-0.08-0.46-0.08-0.67
		l-6.75-6.19c-0.6-0.6-0.63-1.54-0.08-2.09C44.45,53.18,45.39,53.22,45.99,53.82"/>
	<path class="st3" d="M70.58,17.53c-1.9,0.62-3.78,1.24-5.59,1.98c-0.9,0.37-1.79,0.76-2.65,1.19c-0.86,0.43-1.69,0.88-2.46,1.4
		c-0.78,0.51-1.51,1.05-2.15,1.66c-0.65,0.6-1.19,1.25-1.63,1.93c-0.03,0.04-0.06,0.08-0.08,0.13l-0.07,0.13L55.8,26.2l-0.13,0.27
		c-0.04,0.09-0.09,0.17-0.12,0.27L55.44,27c-0.04,0.09-0.06,0.18-0.09,0.27c-0.03,0.09-0.06,0.18-0.09,0.27l-0.07,0.28
		c-0.05,0.18-0.07,0.37-0.11,0.56c-0.02,0.09-0.02,0.19-0.03,0.28l-0.03,0.28c0,0.19-0.01,0.38-0.01,0.57l0.01,0.29
		c0,0.1,0.01,0.19,0.02,0.29c0.16,1.54,0.77,3.15,1.6,4.72c0.83,1.57,1.88,3.11,3,4.63c1.13,1.52,2.34,3.02,3.58,4.52l3.78,4.54
		c0.63,0.77,1.26,1.54,1.89,2.33c0.62,0.79,1.25,1.58,1.86,2.4c0.61,0.82,1.21,1.65,1.79,2.5c0.58,0.86,1.14,1.74,1.67,2.65
		c0.53,0.91,1.03,1.86,1.48,2.86c0.45,0.99,0.84,2.04,1.14,3.14c0.3,1.1,0.5,2.27,0.53,3.47c0.03,1.2-0.12,2.45-0.48,3.63
		c-0.35,1.18-0.93,2.29-1.65,3.25c-0.36,0.48-0.75,0.92-1.16,1.33c-0.41,0.41-0.85,0.78-1.29,1.12c-1.8,1.36-3.76,2.24-5.73,2.89
		c-0.99,0.32-1.98,0.59-2.98,0.82l-0.75,0.16l-0.75,0.14c-0.25,0.05-0.5,0.09-0.75,0.13c-0.25,0.04-0.5,0.08-0.75,0.11
		c-2,0.28-4,0.43-6,0.44c1.91-0.61,3.79-1.23,5.63-1.91c1.83-0.69,3.62-1.45,5.29-2.35c1.67-0.88,3.21-1.94,4.44-3.15
		c0.3-0.31,0.58-0.62,0.83-0.94c0.25-0.33,0.48-0.66,0.67-1c0.39-0.68,0.65-1.39,0.79-2.13c0.28-1.47,0.06-3.02-0.5-4.6
		c-0.56-1.58-1.44-3.16-2.43-4.71c-1-1.55-2.13-3.07-3.32-4.58c-0.59-0.76-1.2-1.51-1.81-2.26c-0.61-0.76-1.23-1.51-1.86-2.27
		l-1.88-2.29c-0.63-0.77-1.26-1.55-1.88-2.34c-1.24-1.58-2.47-3.2-3.61-4.92c-0.58-0.86-1.13-1.74-1.65-2.66
		c-0.53-0.92-1.01-1.87-1.45-2.87c-0.44-1-0.82-2.05-1.1-3.15c-0.28-1.11-0.45-2.28-0.45-3.49c0-0.15,0-0.3,0.01-0.45l0.03-0.45
		c0.01-0.15,0.04-0.3,0.05-0.46c0.02-0.15,0.04-0.3,0.07-0.45l0.09-0.45c0.03-0.15,0.06-0.3,0.11-0.45
		c0.09-0.29,0.16-0.59,0.28-0.88c0.43-1.15,1.05-2.21,1.81-3.1l0.29-0.33c0.1-0.11,0.2-0.21,0.3-0.31c0.2-0.21,0.41-0.4,0.63-0.59
		c0.1-0.1,0.21-0.19,0.32-0.27l0.33-0.27l0.34-0.25c0.11-0.08,0.22-0.16,0.34-0.24c0.92-0.61,1.87-1.12,2.84-1.54
		c1.95-0.83,3.94-1.34,5.94-1.68C66.58,17.72,68.58,17.55,70.58,17.53"/>
</g>
</svg>
